#!OML:ASF F:\VICON\USERDATA\INSTALL\Justin_Nancy\Justin_Nancy.ASF
:FULLY-SPECIFIED
:DEGREES
130
root -8.38052 17.0436 -0.93702 -4.75657 48.8982 -10.2966
lowerback 9.70302 1.05916 5.97277
upperback 0.11416 2.38156 4.31064
thorax -5.28384 1.10332 0.820084
lowerneck -17.1672 -2.0387 -7.75776
upperneck 23.0552 -0.571787 0.359573
head 10.2633 -0.847394 1.35371
rclavicle 1.87852e-014 -7.95139e-015
rhumerus -40.8565 -6.83887 -74.053
rradius 38.1224
rwrist -1.00494
rhand -27.2384 11.4465
rfingers 7.12502
rthumb -0.650324 -18.5323
lclavicle 1.87852e-014 -7.95139e-015
lhumerus -35.3295 4.95626 87.5021
lradius 35.0486
lwrist -4.44237
lhand -20.0354 25.3811
lfingers 7.12502
lthumb 6.30563 55.2672
rfemur -1.75033 -3.97427 15.2913
rtibia 28.8556
rfoot -12.2479 -17.118
rtoes -16.084
lfemur -35.6393 9.77609 -26.5648
ltibia 52.6826
lfoot -20.6684 1.31339
ltoes -5.93902
131
root -8.30139 17.0518 -0.762335 -5.32661 49.9138 -11.2254
lowerback 9.63158 1.31685 6.36273
upperback 0.15458 2.76609 4.37968
thorax -5.17706 1.28855 0.62536
lowerneck -17.2665 -2.0857 -7.83987
upperneck 22.9081 -0.652731 0.534301
head 10.2325 -0.86717 1.41715
rclavicle -4.96962e-015 2.22639e-014
rhumerus -40.8358 -6.95398 -73.8204
rradius 38.6183
rwrist -0.431762
rhand -26.6409 11.3056
rfingers 7.12502
rthumb -0.0732746 -18.6741
lclavicle -4.96962e-015 2.22639e-014
lhumerus -35.2725 6.18493 86.7752
lradius 34.9102
lwrist -3.58823
lhand -19.3942 24.9993
lfingers 7.12502
lthumb 6.92459 54.866
rfemur -0.449494 -3.91314 16.1216
rtibia 27.8247
rfoot -12.2967 -17.0962
rtoes -14.3546
lfemur -36.5916 10.7955 -27.2626
ltibia 50.8279
lfoot -20.4418 1.93529
ltoes -7.2939
132
root -8.21796 17.0553 -0.596829 -5.76622 50.9542 -12.0907
lowerback 9.46799 1.56588 6.74929
upperback 0.205391 3.12908 4.47003
thorax -5.00545 1.46632 0.463048
lowerneck -17.2373 -2.07316 -8.07073
upperneck 22.505 -0.630316 0.719727
head 10.0821 -0.845382 1.52173
rclavicle -2.26615e-014 7.55382e-014
rhumerus -40.7869 -7.14706 -73.4151
rradius 39.1464
rwrist 0.203631
rhand -25.8803 10.9268
rfingers 7.12502
rthumb 0.66135 -19.0519
lclavicle -2.26615e-014 7.55382e-014
lhumerus -35.2804 7.18042 86.2456
lradius 34.9291
lwrist -2.08735
lhand -21.1425 27.8594
lfingers 7.12502
lthumb 5.23672 57.7747
rfemur 0.796902 -4.13071 16.8276
rtibia 26.7241
rfoot -12.1762 -16.851
rtoes -14.1436
lfemur -37.6416 12.1888 -28.2319
ltibia 48.8774
lfoot -20.2265 2.00697
ltoes -7.63622
133
root -8.13486 17.0481 -0.431581 -5.80475 52.1285 -12.4358
lowerback 9.30972 1.65376 6.78604
upperback 0.251252 3.22907 4.43573
thorax -4.86003 1.51956 0.399786
lowerneck -17.2785 -1.94561 -8.28305
upperneck 22.2078 -0.462979 0.982199
head 9.97531 -0.748653 1.67021
rclavicle 9.93923e-017 -8.74653e-015
rhumerus -40.506 -6.88878 -73.4036
rradius 39.3142
rwrist 0.333966
rhand -25.4853 11.0755
rfingers 7.12502
rthumb 1.04288 -18.9017
lclavicle 9.93923e-017 -8.74653e-015
lhumerus -35.3858 10.7567 83.8045
lradius 34.0915
lwrist -6.06436
lhand -18.8986 26.6411
lfingers 7.12502
lthumb 7.40307 56.4916
rfemur 2.19473 -4.53229 17.1562
rtibia 25.4902
rfoot -11.8984 -16.719
rtoes -16.3741
lfemur -38.6313 13.6793 -29.7179
ltibia 46.8454
lfoot -20.1871 1.73955
ltoes -5.66316
134
root -8.04411 17.0379 -0.268461 -5.85154 53.3116 -12.8596
lowerback 9.0731 1.72258 6.90616
upperback 0.287454 3.30675 4.42363
thorax -4.67843 1.56152 0.319921
lowerneck -17.4587 -1.90036 -8.57317
upperneck 22.059 -0.365678 1.23035
head 9.95203 -0.695826 1.81738
rclavicle -2.26615e-014 2.14687e-014
rhumerus -39.9322 -6.36069 -73.4531
rradius 39.0287
rwrist 0.175315
rhand -25.5165 11.8166
rfingers 7.12502
rthumb 1.01268 -18.1607
lclavicle -2.26615e-014 2.14687e-014
lhumerus -35.6776 10.511 83.8048
lradius 35.0283
lwrist -0.853318
lhand -22.951 29.9873
lfingers 7.12502
lthumb 3.49043 59.9385
rfemur 3.61636 -4.94863 17.5012
rtibia 24.0194
rfoot -11.4573 -16.6355
rtoes -19.8322
lfemur -39.5716 14.8221 -31.1438
ltibia 44.7982
lfoot -20.1613 1.24814
ltoes -4.04778
135
root -7.9518 17.0305 -0.103932 -6.56747 54.2406 -13.851
lowerback 9.05461 2.00624 7.26561
upperback 0.361898 3.72987 4.6043
thorax -4.56326 1.77223 0.26092
lowerneck -17.5183 -2.04329 -9.11442
upperneck 21.8529 -0.450897 1.40881
head 9.89935 -0.75374 1.95576
rclavicle -7.15625e-014 -4.77083e-015
rhumerus -39.3846 -5.86967 -73.2528
rradius 38.5229
rwrist -1.09951
rhand -27.4363 13.3115
rfingers 7.12502
rthumb -0.841495 -16.6666
lclavicle -7.15625e-014 -4.77083e-015
lhumerus -35.9293 11.1396 83.254
lradius 35.3162
lwrist -0.0487403
lhand -20.7044 27.9547
lfingers 7.12502
lthumb 5.65973 57.8591
rfemur 5.14349 -5.10328 18.1922
rtibia 22.5034
rfoot -11.1241 -16.346
rtoes -21.3432
lfemur -40.1968 15.7803 -31.964
ltibia 42.7175
lfoot -20.1345 0.441341
ltoes -1.05075
136
root -7.86264 17.0148 0.0731448 -7.73263 55.1121 -15.1276
lowerback 9.25993 2.2581 7.70897
upperback 0.380853 4.13863 4.63699
thorax -4.61328 1.96506 -0.00662389
lowerneck -17.2498 -2.12636 -9.03767
upperneck 21.6065 -0.63566 1.46886
head 9.77085 -0.818588 1.9375
rclavicle 4.26393e-014 1.59028e-015
rhumerus -39.0672 -5.72667 -73.3707
rradius 38.1352
rwrist -1.7426
rhand -29.2333 13.8683
rfingers 7.12502
rthumb -2.57702 -16.0959
lclavicle 4.26393e-014 1.59028e-015
lhumerus -36.3825 11.5557 82.2386
lradius 35.6115
lwrist 0.61327
lhand -19.8846 27.1646
lfingers 7.12502
lthumb 6.45121 57.0463
rfemur 6.91214 -4.85343 19.1678
rtibia 20.8379
rfoot -10.8773 -16.2985
rtoes -21.0286
lfemur -40.5679 16.6543 -32.5467
ltibia 40.577
lfoot -20.2024 0.2799
ltoes 1.42261
137
root -7.77216 16.9727 0.246751 -8.98877 55.7865 -16.7819
lowerback 9.33806 2.42392 8.48567
upperback 0.309049 4.4631 4.6599
thorax -4.66228 2.10689 -0.452016
lowerneck -17.103 -2.18602 -8.9606
upperneck 21.4993 -0.793522 1.61776
head 9.71285 -0.86504 1.95551
rclavicle 2.25621e-014 -1.35174e-014
rhumerus -38.6147 -5.50099 -73.4428
rradius 37.6949
rwrist -0.311667
rhand -28.0579 12.1836
rfingers 7.12502
rthumb -1.44179 -17.7913
lclavicle 2.25621e-014 -1.35174e-014
lhumerus -36.9585 12.3433 80.8837
lradius 35.9451
lwrist 1.21814
lhand -19.3062 26.8657
lfingers 7.12502
lthumb 7.00956 56.7296
rfemur 8.49631 -4.80498 20.362
rtibia 19.016
rfoot -10.5435 -16.1302
rtoes -22.066
lfemur -41.4101 17.9857 -33.4915
ltibia 38.3357
lfoot -19.9586 2.12549
ltoes -7.68974
138
root -7.67291 16.9465 0.406496 -10.1098 56.4188 -18.3842
lowerback 8.86643 2.36723 8.52522
upperback 0.581819 4.35034 5.1633
thorax -4.15566 2.08771 0.0956251
lowerneck -17.5887 -2.01331 -9.13985
upperneck 21.3335 -0.430576 1.50464
head 9.72544 -0.721734 1.99104
rclavicle -6.95746e-015 5.96354e-014
rhumerus -37.2448 -4.17934 -73.3054
rradius 37.1656
rwrist 0.417102
rhand -25.8561 11.543
rfingers 7.12502
rthumb 0.684748 -18.4357
lclavicle -6.95746e-015 5.96354e-014
lhumerus -37.232 15.1298 79.6496
lradius 36.0904
lwrist 1.17991
lhand -19.1249 26.9481
lfingers 7.12502
lthumb 7.18464 56.8061
rfemur 9.9888 -5.08155 21.4364
rtibia 17.2121
rfoot -9.90521 -15.8965
rtoes -24.9937
lfemur -41.8545 18.1185 -33.6305
ltibia 35.9576
lfoot -19.8062 2.51343
ltoes -7.93881
139
root -7.57286 16.9279 0.569278 -11.0052 57.0159 -19.6732
lowerback 8.76773 2.47107 8.70827
upperback 0.528283 4.50933 5.26286
thorax -4.14322 2.16555 0.0859822
lowerneck -17.4522 -1.88359 -9.12901
upperneck 21.1612 -0.330756 1.74194
head 9.63091 -0.642818 2.08437
rclavicle -1.64991e-014 1.51076e-014
rhumerus -36.6802 -2.95415 -73.7733
rradius 36.796
rwrist -1.49815
rhand -25.4156 12.1128
rfingers 7.12502
rthumb 1.11021 -17.8641
lclavicle -1.64991e-014 1.51076e-014
lhumerus -37.8949 16.4367 78.2068
lradius 36.3745
lwrist 1.55246
lhand -19.1501 27.0321
lfingers 7.12502
lthumb 7.16029 56.8909
rfemur 11.2709 -5.08951 22.3585
rtibia 15.6537
rfoot -9.24697 -15.8407
rtoes -26.9814
lfemur -42.0553 17.923 -33.7091
ltibia 33.4272
lfoot -19.6527 2.89918
ltoes -7.52143
140
root -7.46922 16.9122 0.725314 -11.2247 57.584 -20.1461
lowerback 8.83366 2.65333 8.70828
upperback 0.403375 4.75957 5.09421
thorax -4.2824 2.27787 -0.12422
lowerneck -17.2524 -1.85082 -9.04202
upperneck 21.0952 -0.405589 2.04618
head 9.57186 -0.633795 2.16634
rclavicle -4.70126e-014 3.49861e-014
rhumerus -36.4265 -2.83724 -74.0732
rradius 36.7487
rwrist -1.92405
rhand -24.8883 12.1402
rfingers 7.12502
rthumb 1.61943 -17.8334
lclavicle -4.70126e-014 3.49861e-014
lhumerus -38.6822 16.3425 76.87
lradius 36.9388
lwrist 2.62086
lhand -19.4041 27.425
lfingers 7.12502
lthumb 6.91506 57.2921
rfemur 12.5612 -5.25293 22.6989
rtibia 14.0298
rfoot -8.94352 -15.6089
rtoes -26.5185
lfemur -41.9378 16.8382 -33.6585
ltibia 30.8804
lfoot -19.4899 3.85205
ltoes -5.51091
